<mxfile host="Electron" modified="2023-05-30T12:45:19.892Z" agent="Mozilla/5.0 (X11; Linux x86_64) AppleWebKit/537.36 (KHTML, like Gecko) draw.io/21.2.8 Chrome/112.0.5615.165 Electron/24.2.0 Safari/537.36" etag="7ZPgBucJnmngwIVYuzKR" version="21.2.8" type="device">
  <diagram name="Page-1" id="ji-WSBzy-o_pO9u_MhGe">
    <mxGraphModel dx="2804" dy="2304" grid="1" gridSize="10" guides="1" tooltips="1" connect="1" arrows="1" fold="1" page="1" pageScale="1" pageWidth="850" pageHeight="1100" math="0" shadow="0">
      <root>
        <mxCell id="0" />
        <mxCell id="1" parent="0" />
        <mxCell id="yrqm_4jKwpJZYLzFxs-W-102" value="" style="shape=cube;whiteSpace=wrap;html=1;boundedLbl=1;backgroundOutline=1;darkOpacity=0.05;darkOpacity2=0.1;" vertex="1" parent="1">
          <mxGeometry x="-180" y="-140" width="1350" height="790" as="geometry" />
        </mxCell>
        <mxCell id="yrqm_4jKwpJZYLzFxs-W-33" style="edgeStyle=orthogonalEdgeStyle;rounded=0;orthogonalLoop=1;jettySize=auto;html=1;" edge="1" parent="1" source="yrqm_4jKwpJZYLzFxs-W-1" target="yrqm_4jKwpJZYLzFxs-W-2">
          <mxGeometry relative="1" as="geometry" />
        </mxCell>
        <mxCell id="yrqm_4jKwpJZYLzFxs-W-37" value="&lt;font style=&quot;font-size: 18px;&quot;&gt;Kd&lt;/font&gt;" style="edgeLabel;html=1;align=center;verticalAlign=middle;resizable=0;points=[];" vertex="1" connectable="0" parent="yrqm_4jKwpJZYLzFxs-W-33">
          <mxGeometry x="0.7045" y="3" relative="1" as="geometry">
            <mxPoint as="offset" />
          </mxGeometry>
        </mxCell>
        <mxCell id="yrqm_4jKwpJZYLzFxs-W-34" style="edgeStyle=orthogonalEdgeStyle;rounded=0;orthogonalLoop=1;jettySize=auto;html=1;exitX=1;exitY=0.75;exitDx=0;exitDy=0;entryX=0.25;entryY=0;entryDx=0;entryDy=0;" edge="1" parent="1" source="yrqm_4jKwpJZYLzFxs-W-1" target="yrqm_4jKwpJZYLzFxs-W-2">
          <mxGeometry relative="1" as="geometry" />
        </mxCell>
        <mxCell id="yrqm_4jKwpJZYLzFxs-W-36" value="&lt;font style=&quot;font-size: 18px;&quot;&gt;Kp&lt;/font&gt;" style="edgeLabel;html=1;align=center;verticalAlign=middle;resizable=0;points=[];" vertex="1" connectable="0" parent="yrqm_4jKwpJZYLzFxs-W-34">
          <mxGeometry x="0.7414" y="1" relative="1" as="geometry">
            <mxPoint as="offset" />
          </mxGeometry>
        </mxCell>
        <mxCell id="yrqm_4jKwpJZYLzFxs-W-35" style="edgeStyle=orthogonalEdgeStyle;rounded=0;orthogonalLoop=1;jettySize=auto;html=1;exitX=1;exitY=0.25;exitDx=0;exitDy=0;entryX=0.75;entryY=0;entryDx=0;entryDy=0;" edge="1" parent="1" source="yrqm_4jKwpJZYLzFxs-W-1" target="yrqm_4jKwpJZYLzFxs-W-2">
          <mxGeometry relative="1" as="geometry" />
        </mxCell>
        <mxCell id="yrqm_4jKwpJZYLzFxs-W-38" value="&lt;font style=&quot;font-size: 18px;&quot;&gt;Ki&lt;/font&gt;" style="edgeLabel;html=1;align=center;verticalAlign=middle;resizable=0;points=[];" vertex="1" connectable="0" parent="yrqm_4jKwpJZYLzFxs-W-35">
          <mxGeometry x="0.6818" y="-1" relative="1" as="geometry">
            <mxPoint as="offset" />
          </mxGeometry>
        </mxCell>
        <mxCell id="yrqm_4jKwpJZYLzFxs-W-1" value="Deep Reccurent Neural Network" style="rounded=0;whiteSpace=wrap;html=1;" vertex="1" parent="1">
          <mxGeometry x="340" y="97.5" width="140" height="100" as="geometry" />
        </mxCell>
        <mxCell id="yrqm_4jKwpJZYLzFxs-W-39" value="&lt;font style=&quot;font-size: 18px;&quot;&gt;u(t)&lt;/font&gt;" style="edgeStyle=orthogonalEdgeStyle;rounded=0;orthogonalLoop=1;jettySize=auto;html=1;exitX=1;exitY=0.5;exitDx=0;exitDy=0;" edge="1" parent="1" source="yrqm_4jKwpJZYLzFxs-W-2" target="yrqm_4jKwpJZYLzFxs-W-3">
          <mxGeometry x="0.0154" relative="1" as="geometry">
            <mxPoint as="offset" />
          </mxGeometry>
        </mxCell>
        <mxCell id="yrqm_4jKwpJZYLzFxs-W-49" style="edgeStyle=orthogonalEdgeStyle;rounded=0;orthogonalLoop=1;jettySize=auto;html=1;exitX=1;exitY=0.5;exitDx=0;exitDy=0;entryX=0.5;entryY=1;entryDx=0;entryDy=0;" edge="1" parent="1" source="yrqm_4jKwpJZYLzFxs-W-2" target="yrqm_4jKwpJZYLzFxs-W-17">
          <mxGeometry relative="1" as="geometry">
            <Array as="points">
              <mxPoint x="810" y="340" />
              <mxPoint x="810" y="500" />
              <mxPoint x="140" y="500" />
              <mxPoint x="140" y="230" />
              <mxPoint x="120" y="230" />
            </Array>
          </mxGeometry>
        </mxCell>
        <mxCell id="yrqm_4jKwpJZYLzFxs-W-2" value="PID CNTRL" style="rounded=0;whiteSpace=wrap;html=1;" vertex="1" parent="1">
          <mxGeometry x="650" y="300" width="140" height="80" as="geometry" />
        </mxCell>
        <mxCell id="yrqm_4jKwpJZYLzFxs-W-6" style="edgeStyle=orthogonalEdgeStyle;rounded=0;orthogonalLoop=1;jettySize=auto;html=1;entryX=0;entryY=0.5;entryDx=0;entryDy=0;" edge="1" parent="1" source="yrqm_4jKwpJZYLzFxs-W-3" target="yrqm_4jKwpJZYLzFxs-W-5">
          <mxGeometry relative="1" as="geometry" />
        </mxCell>
        <mxCell id="yrqm_4jKwpJZYLzFxs-W-56" style="edgeStyle=orthogonalEdgeStyle;rounded=0;orthogonalLoop=1;jettySize=auto;html=1;exitX=1;exitY=0.5;exitDx=0;exitDy=0;entryX=0.75;entryY=1;entryDx=0;entryDy=0;" edge="1" parent="1" source="yrqm_4jKwpJZYLzFxs-W-3" target="yrqm_4jKwpJZYLzFxs-W-17">
          <mxGeometry relative="1" as="geometry">
            <Array as="points">
              <mxPoint x="1015" y="340" />
              <mxPoint x="1015" y="580" />
              <mxPoint x="145" y="580" />
            </Array>
          </mxGeometry>
        </mxCell>
        <mxCell id="yrqm_4jKwpJZYLzFxs-W-57" value="&lt;font style=&quot;font-size: 18px;&quot;&gt;y(t)&lt;/font&gt;" style="edgeLabel;html=1;align=center;verticalAlign=middle;resizable=0;points=[];" vertex="1" connectable="0" parent="yrqm_4jKwpJZYLzFxs-W-56">
          <mxGeometry x="-0.2975" relative="1" as="geometry">
            <mxPoint as="offset" />
          </mxGeometry>
        </mxCell>
        <mxCell id="yrqm_4jKwpJZYLzFxs-W-3" value="Plant" style="rounded=0;whiteSpace=wrap;html=1;" vertex="1" parent="1">
          <mxGeometry x="855" y="300" width="140" height="80" as="geometry" />
        </mxCell>
        <mxCell id="yrqm_4jKwpJZYLzFxs-W-30" style="edgeStyle=orthogonalEdgeStyle;rounded=0;orthogonalLoop=1;jettySize=auto;html=1;exitX=1;exitY=0.5;exitDx=0;exitDy=0;entryX=0.5;entryY=0;entryDx=0;entryDy=0;" edge="1" parent="1" source="yrqm_4jKwpJZYLzFxs-W-4" target="yrqm_4jKwpJZYLzFxs-W-5">
          <mxGeometry relative="1" as="geometry">
            <Array as="points">
              <mxPoint x="40" y="110" />
              <mxPoint x="40" y="30" />
              <mxPoint x="1100" y="30" />
            </Array>
          </mxGeometry>
        </mxCell>
        <mxCell id="yrqm_4jKwpJZYLzFxs-W-32" value="&lt;font style=&quot;font-size: 24px;&quot;&gt;r(t)&lt;/font&gt;" style="edgeLabel;html=1;align=center;verticalAlign=middle;resizable=0;points=[];" vertex="1" connectable="0" parent="yrqm_4jKwpJZYLzFxs-W-30">
          <mxGeometry x="-0.5694" y="2" relative="1" as="geometry">
            <mxPoint as="offset" />
          </mxGeometry>
        </mxCell>
        <mxCell id="yrqm_4jKwpJZYLzFxs-W-54" style="edgeStyle=orthogonalEdgeStyle;rounded=0;orthogonalLoop=1;jettySize=auto;html=1;exitX=1;exitY=0.5;exitDx=0;exitDy=0;entryX=0;entryY=0.5;entryDx=0;entryDy=0;" edge="1" parent="1" source="yrqm_4jKwpJZYLzFxs-W-4" target="yrqm_4jKwpJZYLzFxs-W-18">
          <mxGeometry relative="1" as="geometry" />
        </mxCell>
        <mxCell id="yrqm_4jKwpJZYLzFxs-W-4" value="Reference" style="rounded=0;whiteSpace=wrap;html=1;" vertex="1" parent="1">
          <mxGeometry x="-130" y="82.5" width="140" height="60" as="geometry" />
        </mxCell>
        <mxCell id="yrqm_4jKwpJZYLzFxs-W-40" style="edgeStyle=orthogonalEdgeStyle;rounded=0;orthogonalLoop=1;jettySize=auto;html=1;exitX=0.5;exitY=1;exitDx=0;exitDy=0;entryX=0;entryY=0.5;entryDx=0;entryDy=0;" edge="1" parent="1" source="yrqm_4jKwpJZYLzFxs-W-5" target="yrqm_4jKwpJZYLzFxs-W-2">
          <mxGeometry relative="1" as="geometry">
            <Array as="points">
              <mxPoint x="1100" y="460" />
              <mxPoint x="610" y="460" />
              <mxPoint x="610" y="340" />
            </Array>
          </mxGeometry>
        </mxCell>
        <mxCell id="yrqm_4jKwpJZYLzFxs-W-41" value="&lt;font style=&quot;font-size: 18px;&quot;&gt;e(t)&lt;/font&gt;" style="edgeLabel;html=1;align=center;verticalAlign=middle;resizable=0;points=[];" vertex="1" connectable="0" parent="yrqm_4jKwpJZYLzFxs-W-40">
          <mxGeometry x="0.1524" y="4" relative="1" as="geometry">
            <mxPoint x="10" y="-14" as="offset" />
          </mxGeometry>
        </mxCell>
        <mxCell id="yrqm_4jKwpJZYLzFxs-W-44" style="edgeStyle=orthogonalEdgeStyle;rounded=0;orthogonalLoop=1;jettySize=auto;html=1;exitX=0.5;exitY=1;exitDx=0;exitDy=0;entryX=0.5;entryY=1;entryDx=0;entryDy=0;" edge="1" parent="1" source="yrqm_4jKwpJZYLzFxs-W-5" target="yrqm_4jKwpJZYLzFxs-W-1">
          <mxGeometry relative="1" as="geometry">
            <Array as="points">
              <mxPoint x="1100" y="460" />
              <mxPoint x="410" y="460" />
            </Array>
          </mxGeometry>
        </mxCell>
        <mxCell id="yrqm_4jKwpJZYLzFxs-W-46" value="&lt;font style=&quot;font-size: 14px;&quot;&gt;Backpropagation&lt;/font&gt;" style="edgeLabel;html=1;align=center;verticalAlign=middle;resizable=0;points=[];" vertex="1" connectable="0" parent="yrqm_4jKwpJZYLzFxs-W-44">
          <mxGeometry x="0.9628" y="-3" relative="1" as="geometry">
            <mxPoint as="offset" />
          </mxGeometry>
        </mxCell>
        <mxCell id="yrqm_4jKwpJZYLzFxs-W-5" value="" style="shape=sumEllipse;perimeter=ellipsePerimeter;whiteSpace=wrap;html=1;backgroundOutline=1;" vertex="1" parent="1">
          <mxGeometry x="1085" y="325" width="30" height="30" as="geometry" />
        </mxCell>
        <mxCell id="yrqm_4jKwpJZYLzFxs-W-100" value="" style="shape=cube;whiteSpace=wrap;html=1;boundedLbl=1;backgroundOutline=1;darkOpacity=0.05;darkOpacity2=0.1;" vertex="1" parent="1">
          <mxGeometry x="-70" y="680" width="1240" height="740" as="geometry" />
        </mxCell>
        <mxCell id="yrqm_4jKwpJZYLzFxs-W-17" value=" Delay" style="shape=table;startSize=30;container=1;collapsible=0;childLayout=tableLayout;fixedRows=1;rowLines=0;fontStyle=0;strokeColor=default;fontSize=16;" vertex="1" parent="1">
          <mxGeometry x="70" y="82.5" width="100" height="130" as="geometry" />
        </mxCell>
        <mxCell id="yrqm_4jKwpJZYLzFxs-W-18" value="" style="shape=tableRow;horizontal=0;startSize=0;swimlaneHead=0;swimlaneBody=0;top=0;left=0;bottom=0;right=0;collapsible=0;dropTarget=0;fillColor=none;points=[[0,0.5],[1,0.5]];portConstraint=eastwest;strokeColor=inherit;fontSize=16;" vertex="1" parent="yrqm_4jKwpJZYLzFxs-W-17">
          <mxGeometry y="30" width="100" height="20" as="geometry" />
        </mxCell>
        <mxCell id="yrqm_4jKwpJZYLzFxs-W-19" value="1" style="shape=partialRectangle;html=1;whiteSpace=wrap;connectable=0;fillColor=none;top=0;left=0;bottom=0;right=0;overflow=hidden;pointerEvents=1;strokeColor=inherit;fontSize=16;" vertex="1" parent="yrqm_4jKwpJZYLzFxs-W-18">
          <mxGeometry width="22" height="20" as="geometry">
            <mxRectangle width="22" height="20" as="alternateBounds" />
          </mxGeometry>
        </mxCell>
        <mxCell id="yrqm_4jKwpJZYLzFxs-W-20" value="t" style="shape=partialRectangle;html=1;whiteSpace=wrap;connectable=0;fillColor=none;top=0;left=0;bottom=0;right=0;align=left;spacingLeft=6;overflow=hidden;strokeColor=inherit;fontSize=16;" vertex="1" parent="yrqm_4jKwpJZYLzFxs-W-18">
          <mxGeometry x="22" width="78" height="20" as="geometry">
            <mxRectangle width="78" height="20" as="alternateBounds" />
          </mxGeometry>
        </mxCell>
        <mxCell id="yrqm_4jKwpJZYLzFxs-W-21" value="" style="shape=tableRow;horizontal=0;startSize=0;swimlaneHead=0;swimlaneBody=0;top=0;left=0;bottom=0;right=0;collapsible=0;dropTarget=0;fillColor=none;points=[[0,0.5],[1,0.5]];portConstraint=eastwest;strokeColor=inherit;fontSize=16;" vertex="1" parent="yrqm_4jKwpJZYLzFxs-W-17">
          <mxGeometry y="50" width="100" height="30" as="geometry" />
        </mxCell>
        <mxCell id="yrqm_4jKwpJZYLzFxs-W-22" value="2" style="shape=partialRectangle;html=1;whiteSpace=wrap;connectable=0;fillColor=none;top=0;left=0;bottom=0;right=0;overflow=hidden;strokeColor=inherit;fontSize=16;" vertex="1" parent="yrqm_4jKwpJZYLzFxs-W-21">
          <mxGeometry width="22" height="30" as="geometry">
            <mxRectangle width="22" height="30" as="alternateBounds" />
          </mxGeometry>
        </mxCell>
        <mxCell id="yrqm_4jKwpJZYLzFxs-W-23" value="t - 1" style="shape=partialRectangle;html=1;whiteSpace=wrap;connectable=0;fillColor=none;top=0;left=0;bottom=0;right=0;align=left;spacingLeft=6;overflow=hidden;strokeColor=inherit;fontSize=16;" vertex="1" parent="yrqm_4jKwpJZYLzFxs-W-21">
          <mxGeometry x="22" width="78" height="30" as="geometry">
            <mxRectangle width="78" height="30" as="alternateBounds" />
          </mxGeometry>
        </mxCell>
        <mxCell id="yrqm_4jKwpJZYLzFxs-W-24" value="" style="shape=tableRow;horizontal=0;startSize=0;swimlaneHead=0;swimlaneBody=0;top=0;left=0;bottom=0;right=0;collapsible=0;dropTarget=0;fillColor=none;points=[[0,0.5],[1,0.5]];portConstraint=eastwest;strokeColor=inherit;fontSize=16;" vertex="1" parent="yrqm_4jKwpJZYLzFxs-W-17">
          <mxGeometry y="80" width="100" height="30" as="geometry" />
        </mxCell>
        <mxCell id="yrqm_4jKwpJZYLzFxs-W-25" value="3" style="shape=partialRectangle;html=1;whiteSpace=wrap;connectable=0;fillColor=none;top=0;left=0;bottom=0;right=0;overflow=hidden;strokeColor=inherit;fontSize=16;" vertex="1" parent="yrqm_4jKwpJZYLzFxs-W-24">
          <mxGeometry width="22" height="30" as="geometry">
            <mxRectangle width="22" height="30" as="alternateBounds" />
          </mxGeometry>
        </mxCell>
        <mxCell id="yrqm_4jKwpJZYLzFxs-W-26" value="t- 2" style="shape=partialRectangle;html=1;whiteSpace=wrap;connectable=0;fillColor=none;top=0;left=0;bottom=0;right=0;align=left;spacingLeft=6;overflow=hidden;strokeColor=inherit;fontSize=16;" vertex="1" parent="yrqm_4jKwpJZYLzFxs-W-24">
          <mxGeometry x="22" width="78" height="30" as="geometry">
            <mxRectangle width="78" height="30" as="alternateBounds" />
          </mxGeometry>
        </mxCell>
        <mxCell id="yrqm_4jKwpJZYLzFxs-W-50" style="edgeStyle=orthogonalEdgeStyle;rounded=0;orthogonalLoop=1;jettySize=auto;html=1;entryX=0;entryY=0.25;entryDx=0;entryDy=0;" edge="1" parent="1" source="yrqm_4jKwpJZYLzFxs-W-18" target="yrqm_4jKwpJZYLzFxs-W-1">
          <mxGeometry relative="1" as="geometry">
            <Array as="points">
              <mxPoint x="260" y="123" />
              <mxPoint x="260" y="123" />
            </Array>
          </mxGeometry>
        </mxCell>
        <mxCell id="yrqm_4jKwpJZYLzFxs-W-51" value="&lt;font style=&quot;font-size: 18px;&quot;&gt;[r(t),r(t-1),r(t-2)]&lt;/font&gt;" style="edgeLabel;html=1;align=center;verticalAlign=middle;resizable=0;points=[];" vertex="1" connectable="0" parent="yrqm_4jKwpJZYLzFxs-W-50">
          <mxGeometry x="-0.1867" y="-1" relative="1" as="geometry">
            <mxPoint y="1" as="offset" />
          </mxGeometry>
        </mxCell>
        <mxCell id="yrqm_4jKwpJZYLzFxs-W-52" style="edgeStyle=orthogonalEdgeStyle;rounded=0;orthogonalLoop=1;jettySize=auto;html=1;exitX=1;exitY=0.5;exitDx=0;exitDy=0;entryX=0;entryY=0.5;entryDx=0;entryDy=0;" edge="1" parent="1" source="yrqm_4jKwpJZYLzFxs-W-21" target="yrqm_4jKwpJZYLzFxs-W-1">
          <mxGeometry relative="1" as="geometry" />
        </mxCell>
        <mxCell id="yrqm_4jKwpJZYLzFxs-W-53" value="&lt;font style=&quot;font-size: 18px;&quot;&gt;[u(t),u(t-1),u(t-2)]&lt;/font&gt;" style="edgeLabel;html=1;align=center;verticalAlign=middle;resizable=0;points=[];" vertex="1" connectable="0" parent="yrqm_4jKwpJZYLzFxs-W-52">
          <mxGeometry x="0.2588" y="2" relative="1" as="geometry">
            <mxPoint x="-37" y="2" as="offset" />
          </mxGeometry>
        </mxCell>
        <mxCell id="yrqm_4jKwpJZYLzFxs-W-55" style="edgeStyle=orthogonalEdgeStyle;rounded=0;orthogonalLoop=1;jettySize=auto;html=1;exitX=1;exitY=0.5;exitDx=0;exitDy=0;entryX=0;entryY=0.75;entryDx=0;entryDy=0;" edge="1" parent="1" source="yrqm_4jKwpJZYLzFxs-W-24" target="yrqm_4jKwpJZYLzFxs-W-1">
          <mxGeometry relative="1" as="geometry" />
        </mxCell>
        <mxCell id="yrqm_4jKwpJZYLzFxs-W-58" value="&lt;font style=&quot;font-size: 18px;&quot;&gt;[y(t),y(t-1),y(t-2)]&lt;/font&gt;" style="edgeLabel;html=1;align=center;verticalAlign=middle;resizable=0;points=[];" vertex="1" connectable="0" parent="yrqm_4jKwpJZYLzFxs-W-55">
          <mxGeometry x="-0.2457" y="2" relative="1" as="geometry">
            <mxPoint y="1" as="offset" />
          </mxGeometry>
        </mxCell>
        <mxCell id="yrqm_4jKwpJZYLzFxs-W-86" style="edgeStyle=orthogonalEdgeStyle;rounded=0;orthogonalLoop=1;jettySize=auto;html=1;exitX=1;exitY=0.5;exitDx=0;exitDy=0;entryX=0;entryY=0.5;entryDx=0;entryDy=0;" edge="1" parent="1" source="yrqm_4jKwpJZYLzFxs-W-72" target="yrqm_4jKwpJZYLzFxs-W-73">
          <mxGeometry relative="1" as="geometry" />
        </mxCell>
        <mxCell id="yrqm_4jKwpJZYLzFxs-W-72" value="" style="rounded=1;whiteSpace=wrap;html=1;" vertex="1" parent="1">
          <mxGeometry x="310" y="730" width="100" height="400" as="geometry" />
        </mxCell>
        <mxCell id="yrqm_4jKwpJZYLzFxs-W-59" value="&lt;font style=&quot;font-size: 24px;&quot;&gt;Deep Reccurent Neural Network&lt;/font&gt;" style="rounded=0;whiteSpace=wrap;html=1;" vertex="1" parent="1">
          <mxGeometry x="20" y="890" width="170" height="230" as="geometry" />
        </mxCell>
        <mxCell id="yrqm_4jKwpJZYLzFxs-W-62" value="" style="ellipse;whiteSpace=wrap;html=1;aspect=fixed;" vertex="1" parent="1">
          <mxGeometry x="320" y="890" width="80" height="80" as="geometry" />
        </mxCell>
        <mxCell id="yrqm_4jKwpJZYLzFxs-W-63" value="" style="ellipse;whiteSpace=wrap;html=1;aspect=fixed;" vertex="1" parent="1">
          <mxGeometry x="320" y="790" width="80" height="80" as="geometry" />
        </mxCell>
        <mxCell id="yrqm_4jKwpJZYLzFxs-W-64" value="" style="ellipse;whiteSpace=wrap;html=1;aspect=fixed;" vertex="1" parent="1">
          <mxGeometry x="320" y="980" width="80" height="80" as="geometry" />
        </mxCell>
        <mxCell id="yrqm_4jKwpJZYLzFxs-W-87" style="edgeStyle=orthogonalEdgeStyle;rounded=0;orthogonalLoop=1;jettySize=auto;html=1;exitX=1;exitY=0.5;exitDx=0;exitDy=0;entryX=0;entryY=0.5;entryDx=0;entryDy=0;" edge="1" parent="1" source="yrqm_4jKwpJZYLzFxs-W-73" target="yrqm_4jKwpJZYLzFxs-W-77">
          <mxGeometry relative="1" as="geometry" />
        </mxCell>
        <mxCell id="yrqm_4jKwpJZYLzFxs-W-73" value="" style="rounded=1;whiteSpace=wrap;html=1;" vertex="1" parent="1">
          <mxGeometry x="470" y="730" width="100" height="400" as="geometry" />
        </mxCell>
        <mxCell id="yrqm_4jKwpJZYLzFxs-W-74" value="" style="ellipse;whiteSpace=wrap;html=1;aspect=fixed;" vertex="1" parent="1">
          <mxGeometry x="480" y="890" width="80" height="80" as="geometry" />
        </mxCell>
        <mxCell id="yrqm_4jKwpJZYLzFxs-W-75" value="" style="ellipse;whiteSpace=wrap;html=1;aspect=fixed;" vertex="1" parent="1">
          <mxGeometry x="480" y="790" width="80" height="80" as="geometry" />
        </mxCell>
        <mxCell id="yrqm_4jKwpJZYLzFxs-W-76" value="" style="ellipse;whiteSpace=wrap;html=1;aspect=fixed;" vertex="1" parent="1">
          <mxGeometry x="480" y="980" width="80" height="80" as="geometry" />
        </mxCell>
        <mxCell id="yrqm_4jKwpJZYLzFxs-W-88" value="&lt;font style=&quot;font-size: 24px;&quot;&gt;[Kp,Kd,Ki]&lt;br&gt;&lt;/font&gt;" style="edgeStyle=orthogonalEdgeStyle;rounded=0;orthogonalLoop=1;jettySize=auto;html=1;exitX=1;exitY=0.5;exitDx=0;exitDy=0;" edge="1" parent="1" source="yrqm_4jKwpJZYLzFxs-W-77">
          <mxGeometry x="0.3333" relative="1" as="geometry">
            <mxPoint x="950" y="930.2857142857144" as="targetPoint" />
            <Array as="points">
              <mxPoint x="890" y="930" />
              <mxPoint x="890" y="930" />
            </Array>
            <mxPoint as="offset" />
          </mxGeometry>
        </mxCell>
        <mxCell id="yrqm_4jKwpJZYLzFxs-W-77" value="" style="rounded=1;whiteSpace=wrap;html=1;" vertex="1" parent="1">
          <mxGeometry x="640" y="730" width="100" height="400" as="geometry" />
        </mxCell>
        <mxCell id="yrqm_4jKwpJZYLzFxs-W-78" value="" style="ellipse;whiteSpace=wrap;html=1;aspect=fixed;" vertex="1" parent="1">
          <mxGeometry x="650" y="890" width="80" height="80" as="geometry" />
        </mxCell>
        <mxCell id="yrqm_4jKwpJZYLzFxs-W-79" value="" style="ellipse;whiteSpace=wrap;html=1;aspect=fixed;" vertex="1" parent="1">
          <mxGeometry x="650" y="790" width="80" height="80" as="geometry" />
        </mxCell>
        <mxCell id="yrqm_4jKwpJZYLzFxs-W-80" value="" style="ellipse;whiteSpace=wrap;html=1;aspect=fixed;" vertex="1" parent="1">
          <mxGeometry x="650" y="980" width="80" height="80" as="geometry" />
        </mxCell>
        <mxCell id="yrqm_4jKwpJZYLzFxs-W-81" value="&lt;font style=&quot;font-size: 18px;&quot;&gt;W_t&lt;/font&gt;" style="text;html=1;strokeColor=none;fillColor=none;align=center;verticalAlign=middle;whiteSpace=wrap;rounded=0;" vertex="1" parent="1">
          <mxGeometry x="330" y="1130" width="60" height="30" as="geometry" />
        </mxCell>
        <mxCell id="yrqm_4jKwpJZYLzFxs-W-82" value="&lt;font style=&quot;font-size: 18px;&quot;&gt;W_t&lt;/font&gt;" style="text;html=1;strokeColor=none;fillColor=none;align=center;verticalAlign=middle;whiteSpace=wrap;rounded=0;" vertex="1" parent="1">
          <mxGeometry x="490" y="1130" width="60" height="30" as="geometry" />
        </mxCell>
        <mxCell id="yrqm_4jKwpJZYLzFxs-W-83" value="&lt;font style=&quot;font-size: 18px;&quot;&gt;W_t&lt;/font&gt;" style="text;html=1;strokeColor=none;fillColor=none;align=center;verticalAlign=middle;whiteSpace=wrap;rounded=0;" vertex="1" parent="1">
          <mxGeometry x="660" y="1130" width="60" height="30" as="geometry" />
        </mxCell>
        <mxCell id="yrqm_4jKwpJZYLzFxs-W-94" style="edgeStyle=orthogonalEdgeStyle;rounded=0;orthogonalLoop=1;jettySize=auto;html=1;exitX=1;exitY=0.5;exitDx=0;exitDy=0;" edge="1" parent="1" source="yrqm_4jKwpJZYLzFxs-W-90" target="yrqm_4jKwpJZYLzFxs-W-72">
          <mxGeometry relative="1" as="geometry" />
        </mxCell>
        <mxCell id="yrqm_4jKwpJZYLzFxs-W-90" value="&lt;font style=&quot;font-size: 18px;&quot;&gt;X_(t-2)&lt;/font&gt;" style="triangle;whiteSpace=wrap;html=1;direction=north;" vertex="1" parent="1">
          <mxGeometry x="292.5" y="1240" width="135" height="110" as="geometry" />
        </mxCell>
        <mxCell id="yrqm_4jKwpJZYLzFxs-W-97" style="edgeStyle=orthogonalEdgeStyle;rounded=0;orthogonalLoop=1;jettySize=auto;html=1;exitX=1;exitY=0.5;exitDx=0;exitDy=0;" edge="1" parent="1" source="yrqm_4jKwpJZYLzFxs-W-92" target="yrqm_4jKwpJZYLzFxs-W-77">
          <mxGeometry relative="1" as="geometry" />
        </mxCell>
        <mxCell id="yrqm_4jKwpJZYLzFxs-W-92" value="&lt;font style=&quot;font-size: 18px;&quot;&gt;X_(t)&lt;/font&gt;" style="triangle;whiteSpace=wrap;html=1;direction=north;" vertex="1" parent="1">
          <mxGeometry x="630" y="1235" width="120" height="115" as="geometry" />
        </mxCell>
        <mxCell id="yrqm_4jKwpJZYLzFxs-W-95" style="edgeStyle=orthogonalEdgeStyle;rounded=0;orthogonalLoop=1;jettySize=auto;html=1;exitX=1;exitY=0.5;exitDx=0;exitDy=0;" edge="1" parent="1" source="yrqm_4jKwpJZYLzFxs-W-93" target="yrqm_4jKwpJZYLzFxs-W-73">
          <mxGeometry relative="1" as="geometry" />
        </mxCell>
        <mxCell id="yrqm_4jKwpJZYLzFxs-W-93" value="&lt;font style=&quot;font-size: 18px;&quot;&gt;X_(t-1)&lt;/font&gt;" style="triangle;whiteSpace=wrap;html=1;direction=north;" vertex="1" parent="1">
          <mxGeometry x="455" y="1230" width="130" height="120" as="geometry" />
        </mxCell>
        <mxCell id="yrqm_4jKwpJZYLzFxs-W-103" value="&lt;font style=&quot;font-size: 24px;&quot;&gt;System&lt;/font&gt;" style="text;html=1;strokeColor=none;fillColor=none;align=center;verticalAlign=middle;whiteSpace=wrap;rounded=0;" vertex="1" parent="1">
          <mxGeometry x="-100" y="-100" width="60" height="30" as="geometry" />
        </mxCell>
      </root>
    </mxGraphModel>
  </diagram>
</mxfile>
